<?xml version="1.0" encoding="utf-8"?>
<!-- Generator: Adobe Illustrator 21.0.0, SVG Export Plug-In . SVG Version: 6.00 Build 0)  -->
<svg version="1.1" id="Layer_1" xmlns="http://www.w3.org/2000/svg" xmlns:xlink="http://www.w3.org/1999/xlink" x="0px" y="0px"
	 viewBox="0 0 689 343" style="enable-background:new 0 0 689 343;" xml:space="preserve">
<style type="text/css">
	.st0{fill:#FFFFFF;stroke:#000000;stroke-width:3;stroke-miterlimit:10;}
    .st0{
			stroke-dasharray: 2500;    // default 2500
			stroke-dashoffset: 0; 		// default 0
			-webkit-animation: dash 4.5s linear forwards; //default forwards
			-moz-animation: dash 4.5slineart forwards;
			-o-animation: dash 4.5s linear forwards;
			animation: dash 4.5s linear forwards;
		}

		@-webkit-keyframes dash{
			0%{
                stroke: black;
				stroke-dashoffset: 2500;
			}
			20%{
				stroke-dashoffset: 2000;
			}
			40%{
				stroke-dashoffset: 1500;
			}
			60%{
				stroke-dashoffset: 1000;
			}
			80%{
				stroke-dashoffset: 500;
				fill: #fff;
			}
			90%{
                stroke: black;
				stroke-dashoffset: 0;
			}
			100%{
				fill: #eeeeee;
                stroke: #eeeeee;
			}
		}
</style>
<g>
	
	<path class="st0" d="M173.2,339.8c-14.5,0-29,0.1-43.5,0c-12.8-0.1-19.6-7-19.6-19.9c0-26.3-0.1-52.7,0.1-79c0-4.8-1.3-6.3-6.1-6.2
		c-26.3,0.2-52.7,0.1-79,0.1c-14.5,0-21-6.5-21-21c0-28.3,0-56.7,0-85c0-12.7,7.1-19.8,19.8-19.8c26.7,0,53.3-0.2,80,0.1
		c5.3,0.1,6.3-1.6,6.3-6.5c-0.2-26.2-0.1-52.3-0.1-78.5c0-13.1,7-20.1,20-20.1c28.7,0,57.3,0,86,0c12.8,0,19.8,6.9,19.8,19.7
		c0.1,28.8,0.1,57.7,0,86.5c0,13.1-6.6,19.6-19.8,19.6c-26.5,0.1-53,0-79.5,0c-6.7,0-6.7,0-6.7,6.6c0,23.8,0.1,47.7-0.1,71.5
		c0,4.7,1.2,6.2,6.1,6.2c26.7-0.2,53.3-0.1,80-0.1c12.8,0,19.9,6.8,19.9,19.6c0.1,28.8,0.1,57.7,0,86.5
		c-0.1,13.2-6.5,19.6-19.7,19.7C201.9,339.9,187.5,339.8,173.2,339.8z"/>
</g>
</svg>
